<svg width="42" height="52" viewBox="0 0 42 52" fill="none" xmlns="http://www.w3.org/2000/svg">
<path d="M39.0291 22.7572C39.2191 21.6689 39.3239 20.5493 39.3239 19.4048C39.3239 9.00038 31.1038 0.534927 21 0.534927C10.8958 0.534927 2.67522 9.00038 2.67522 19.4048C2.67522 20.5493 2.78049 21.668 2.97095 22.7572C1.37991 23.7733 0.321899 25.5499 0.321899 27.579V46.0518C0.321899 49.2116 2.88352 51.7728 6.0424 51.7728H35.9572C39.1152 51.7728 41.6763 49.2116 41.6763 46.0518H41.6781V27.579C41.6781 25.5504 40.621 23.7733 39.0291 22.7572ZM23.5242 38.8871V42.9014C23.5242 44.2967 22.3939 45.4269 20.9991 45.4269C19.6043 45.4269 18.4741 44.2967 18.4741 42.9014V38.8853C16.8545 37.9927 15.7559 36.2706 15.7559 34.2901C15.7559 31.3944 18.1034 29.0464 21 29.0464C23.8966 29.0464 26.2446 31.3944 26.2446 34.2901C26.2446 36.2715 25.1451 37.995 23.5242 38.8871ZM32.3518 21.8576H9.64777C9.4921 21.0658 9.40914 20.2447 9.40914 19.4048C9.40914 12.7128 14.6087 7.26884 21 7.26884C27.3909 7.26884 32.59 12.7124 32.59 19.4048C32.59 20.2447 32.5079 21.0658 32.3518 21.8576Z" fill="#757575"/>
</svg>
