<svg width="49" height="49" viewBox="0 0 49 49" fill="none" xmlns="http://www.w3.org/2000/svg">
<path d="M44.1 0H4.9C2.205 0 0 2.205 0 4.9V44.1C0 46.795 2.205 49 4.9 49H44.1C46.795 49 49 46.795 49 44.1V4.9C49 2.205 46.795 0 44.1 0ZM24.5 9.8C28.665 9.8 31.85 12.985 31.85 17.15C31.85 21.315 28.665 24.5 24.5 24.5C20.335 24.5 17.15 21.315 17.15 17.15C17.15 12.985 20.335 9.8 24.5 9.8ZM39.2 39.2H9.8V36.015C9.8 34.79 10.29 33.81 11.27 33.075C13.23 31.605 17.395 29.4 24.5 29.4C31.605 29.4 35.77 31.605 37.73 32.83C38.71 33.565 39.2 34.545 39.2 35.77V39.2Z" fill="#757575"/>
</svg>
