<svg width="45" height="52" viewBox="0 0 45 52" fill="none" xmlns="http://www.w3.org/2000/svg">
<path d="M3.75 0C2.75544 0 1.80161 0.34241 1.09835 0.951903C0.395088 1.5614 0 2.38805 0 3.25V48.75C0 49.612 0.395088 50.4386 1.09835 51.0481C1.80161 51.6576 2.75544 52 3.75 52H15V40.625C15 40.194 15.1975 39.7807 15.5492 39.476C15.9008 39.1712 16.3777 39 16.875 39H28.125C28.6223 39 29.0992 39.1712 29.4508 39.476C29.8025 39.7807 30 40.194 30 40.625V52H41.25C42.2446 52 43.1984 51.6576 43.9016 51.0481C44.6049 50.4386 45 49.612 45 48.75V3.25C45 2.38805 44.6049 1.5614 43.9016 0.951903C43.1984 0.34241 42.2446 0 41.25 0L3.75 0ZM7.5 8.125C7.5 7.69402 7.69754 7.2807 8.04918 6.97595C8.40081 6.67121 8.87772 6.5 9.375 6.5H13.125C13.6223 6.5 14.0992 6.67121 14.4508 6.97595C14.8025 7.2807 15 7.69402 15 8.125V11.375C15 11.806 14.8025 12.2193 14.4508 12.524C14.0992 12.8288 13.6223 13 13.125 13H9.375C8.87772 13 8.40081 12.8288 8.04918 12.524C7.69754 12.2193 7.5 11.806 7.5 11.375V8.125ZM18.75 8.125C18.75 7.69402 18.9475 7.2807 19.2992 6.97595C19.6508 6.67121 20.1277 6.5 20.625 6.5H24.375C24.8723 6.5 25.3492 6.67121 25.7008 6.97595C26.0525 7.2807 26.25 7.69402 26.25 8.125V11.375C26.25 11.806 26.0525 12.2193 25.7008 12.524C25.3492 12.8288 24.8723 13 24.375 13H20.625C20.1277 13 19.6508 12.8288 19.2992 12.524C18.9475 12.2193 18.75 11.806 18.75 11.375V8.125ZM31.875 6.5H35.625C36.1223 6.5 36.5992 6.67121 36.9508 6.97595C37.3025 7.2807 37.5 7.69402 37.5 8.125V11.375C37.5 11.806 37.3025 12.2193 36.9508 12.524C36.5992 12.8288 36.1223 13 35.625 13H31.875C31.3777 13 30.9008 12.8288 30.5492 12.524C30.1975 12.2193 30 11.806 30 11.375V8.125C30 7.69402 30.1975 7.2807 30.5492 6.97595C30.9008 6.67121 31.3777 6.5 31.875 6.5ZM7.5 17.875C7.5 17.444 7.69754 17.0307 8.04918 16.726C8.40081 16.4212 8.87772 16.25 9.375 16.25H13.125C13.6223 16.25 14.0992 16.4212 14.4508 16.726C14.8025 17.0307 15 17.444 15 17.875V21.125C15 21.556 14.8025 21.9693 14.4508 22.274C14.0992 22.5788 13.6223 22.75 13.125 22.75H9.375C8.87772 22.75 8.40081 22.5788 8.04918 22.274C7.69754 21.9693 7.5 21.556 7.5 21.125V17.875ZM20.625 16.25H24.375C24.8723 16.25 25.3492 16.4212 25.7008 16.726C26.0525 17.0307 26.25 17.444 26.25 17.875V21.125C26.25 21.556 26.0525 21.9693 25.7008 22.274C25.3492 22.5788 24.8723 22.75 24.375 22.75H20.625C20.1277 22.75 19.6508 22.5788 19.2992 22.274C18.9475 21.9693 18.75 21.556 18.75 21.125V17.875C18.75 17.444 18.9475 17.0307 19.2992 16.726C19.6508 16.4212 20.1277 16.25 20.625 16.25ZM30 17.875C30 17.444 30.1975 17.0307 30.5492 16.726C30.9008 16.4212 31.3777 16.25 31.875 16.25H35.625C36.1223 16.25 36.5992 16.4212 36.9508 16.726C37.3025 17.0307 37.5 17.444 37.5 17.875V21.125C37.5 21.556 37.3025 21.9693 36.9508 22.274C36.5992 22.5788 36.1223 22.75 35.625 22.75H31.875C31.3777 22.75 30.9008 22.5788 30.5492 22.274C30.1975 21.9693 30 21.556 30 21.125V17.875ZM9.375 26H13.125C13.6223 26 14.0992 26.1712 14.4508 26.476C14.8025 26.7807 15 27.194 15 27.625V30.875C15 31.306 14.8025 31.7193 14.4508 32.024C14.0992 32.3288 13.6223 32.5 13.125 32.5H9.375C8.87772 32.5 8.40081 32.3288 8.04918 32.024C7.69754 31.7193 7.5 31.306 7.5 30.875V27.625C7.5 27.194 7.69754 26.7807 8.04918 26.476C8.40081 26.1712 8.87772 26 9.375 26ZM18.75 27.625C18.75 27.194 18.9475 26.7807 19.2992 26.476C19.6508 26.1712 20.1277 26 20.625 26H24.375C24.8723 26 25.3492 26.1712 25.7008 26.476C26.0525 26.7807 26.25 27.194 26.25 27.625V30.875C26.25 31.306 26.0525 31.7193 25.7008 32.024C25.3492 32.3288 24.8723 32.5 24.375 32.5H20.625C20.1277 32.5 19.6508 32.3288 19.2992 32.024C18.9475 31.7193 18.75 31.306 18.75 30.875V27.625ZM31.875 26H35.625C36.1223 26 36.5992 26.1712 36.9508 26.476C37.3025 26.7807 37.5 27.194 37.5 27.625V30.875C37.5 31.306 37.3025 31.7193 36.9508 32.024C36.5992 32.3288 36.1223 32.5 35.625 32.5H31.875C31.3777 32.5 30.9008 32.3288 30.5492 32.024C30.1975 31.7193 30 31.306 30 30.875V27.625C30 27.194 30.1975 26.7807 30.5492 26.476C30.9008 26.1712 31.3777 26 31.875 26Z" fill="#757575"/>
</svg>
