<svg width="52" height="52" viewBox="0 0 52 52" fill="none" xmlns="http://www.w3.org/2000/svg">
<path d="M24.9503 31.9809C20.4821 28.3145 17.4986 23.7902 15.9301 21.2159L14.7601 19.0148C15.1692 18.5768 18.2888 15.2432 19.6408 13.4344C21.3397 11.1632 18.8765 9.11191 18.8765 9.11191C18.8765 9.11191 11.9455 2.19443 10.3659 0.822272C8.78635 -0.551811 6.96805 0.211355 6.96805 0.211355C3.64815 2.35196 0.206478 4.21305 6.9696e-06 13.1636C-0.00769359 21.5435 6.36693 30.1866 13.2604 36.8779C20.1649 44.4346 29.6448 52.0086 38.8099 52C47.7782 51.7959 49.6427 48.3619 51.7877 45.0489C51.7877 45.0489 52.553 43.2358 51.1775 41.6581C49.801 40.0809 42.8681 33.1629 42.8681 33.1629C42.8681 33.1629 40.814 30.7044 38.5375 32.4012C36.8409 33.6667 33.7944 36.4817 33.0605 37.1641C33.0619 37.1665 27.9656 34.4554 24.9503 31.9809Z" fill="#757575"/>
</svg>
